<mxfile host="65bd71144e">
    <diagram name="Positivos o Negativos (10 números)" id="Q71rAFPMbbPDAgyXanvC">
        <mxGraphModel dx="1504" dy="799" grid="1" gridSize="10" guides="1" tooltips="1" connect="1" arrows="1" fold="1" page="1" pageScale="1" pageWidth="827" pageHeight="1169" math="0" shadow="0">
            <root>
                <mxCell id="0"/>
                <mxCell id="1" parent="0"/>
                <mxCell id="RKgv_uAVDBzMmzX2CUga-26" value="Inicio" style="ellipse;whiteSpace=wrap;html=1;aspect=fixed;" parent="1" vertex="1">
                    <mxGeometry x="126" y="200" width="80" height="80" as="geometry"/>
                </mxCell>
                <mxCell id="9" value="" style="edgeStyle=none;html=1;" edge="1" parent="1" source="RKgv_uAVDBzMmzX2CUga-27" target="8">
                    <mxGeometry relative="1" as="geometry"/>
                </mxCell>
                <mxCell id="RKgv_uAVDBzMmzX2CUga-27" value="n,&lt;br&gt;&amp;nbsp;i, &lt;br&gt;res : Entero" style="rounded=1;whiteSpace=wrap;html=1;" parent="1" vertex="1">
                    <mxGeometry x="111" y="110" width="110" height="60" as="geometry"/>
                </mxCell>
                <mxCell id="4" style="edgeStyle=none;html=1;entryX=0.5;entryY=0;entryDx=0;entryDy=0;" edge="1" parent="1" source="RKgv_uAVDBzMmzX2CUga-28" target="3">
                    <mxGeometry relative="1" as="geometry"/>
                </mxCell>
                <mxCell id="RKgv_uAVDBzMmzX2CUga-28" value="ESCRIBIR: &quot;Introduce un número entre 0 y 10&quot;&lt;div&gt;LEER: n&lt;/div&gt;" style="shape=parallelogram;perimeter=parallelogramPerimeter;whiteSpace=wrap;html=1;" parent="1" vertex="1">
                    <mxGeometry x="350" y="110" width="370" height="60" as="geometry"/>
                </mxCell>
                <mxCell id="RKgv_uAVDBzMmzX2CUga-30" value="i &amp;lt;= 10" style="rhombus;whiteSpace=wrap;html=1;" parent="1" vertex="1">
                    <mxGeometry x="336" y="260" width="94" height="80" as="geometry"/>
                </mxCell>
                <mxCell id="RKgv_uAVDBzMmzX2CUga-31" value="res = n * i" style="rounded=1;whiteSpace=wrap;html=1;" parent="1" vertex="1">
                    <mxGeometry x="230" y="350" width="90" height="60" as="geometry"/>
                </mxCell>
                <mxCell id="RKgv_uAVDBzMmzX2CUga-32" value="ESCRIBIR: &quot;n x i = res&quot;" style="rounded=1;whiteSpace=wrap;html=1;" parent="1" vertex="1">
                    <mxGeometry x="203" y="440" width="144" height="60" as="geometry"/>
                </mxCell>
                <mxCell id="RKgv_uAVDBzMmzX2CUga-33" value="i = i + 1" style="rounded=1;whiteSpace=wrap;html=1;" parent="1" vertex="1">
                    <mxGeometry x="364" y="440" width="100" height="60" as="geometry"/>
                </mxCell>
                <mxCell id="RKgv_uAVDBzMmzX2CUga-34" value="Fin" style="ellipse;whiteSpace=wrap;html=1;aspect=fixed;" parent="1" vertex="1">
                    <mxGeometry x="480" y="340" width="80" height="80" as="geometry"/>
                </mxCell>
                <mxCell id="RKgv_uAVDBzMmzX2CUga-35" value="" style="endArrow=block;rounded=1;html=1;" parent="1" source="RKgv_uAVDBzMmzX2CUga-26" target="RKgv_uAVDBzMmzX2CUga-27" edge="1">
                    <mxGeometry relative="1" as="geometry"/>
                </mxCell>
                <mxCell id="RKgv_uAVDBzMmzX2CUga-39" value="Sí" style="endArrow=block;rounded=1;html=1;" parent="1" source="RKgv_uAVDBzMmzX2CUga-30" target="RKgv_uAVDBzMmzX2CUga-31" edge="1">
                    <mxGeometry relative="1" as="geometry"/>
                </mxCell>
                <mxCell id="RKgv_uAVDBzMmzX2CUga-40" value="No" style="endArrow=block;rounded=1;html=1;" parent="1" source="RKgv_uAVDBzMmzX2CUga-30" target="RKgv_uAVDBzMmzX2CUga-34" edge="1">
                    <mxGeometry relative="1" as="geometry"/>
                </mxCell>
                <mxCell id="RKgv_uAVDBzMmzX2CUga-41" value="" style="endArrow=block;rounded=1;html=1;" parent="1" source="RKgv_uAVDBzMmzX2CUga-31" target="RKgv_uAVDBzMmzX2CUga-32" edge="1">
                    <mxGeometry relative="1" as="geometry"/>
                </mxCell>
                <mxCell id="RKgv_uAVDBzMmzX2CUga-42" value="" style="endArrow=block;rounded=1;html=1;" parent="1" source="RKgv_uAVDBzMmzX2CUga-32" target="RKgv_uAVDBzMmzX2CUga-33" edge="1">
                    <mxGeometry relative="1" as="geometry"/>
                </mxCell>
                <mxCell id="RKgv_uAVDBzMmzX2CUga-43" value="" style="endArrow=block;rounded=1;html=1;" parent="1" source="RKgv_uAVDBzMmzX2CUga-33" target="RKgv_uAVDBzMmzX2CUga-30" edge="1">
                    <mxGeometry relative="1" as="geometry"/>
                </mxCell>
                <mxCell id="5" value="SI" style="edgeStyle=none;html=1;entryX=1;entryY=0;entryDx=0;entryDy=0;" edge="1" parent="1" source="3" target="RKgv_uAVDBzMmzX2CUga-30">
                    <mxGeometry x="-1" y="147" relative="1" as="geometry">
                        <mxPoint x="79" y="-147" as="offset"/>
                    </mxGeometry>
                </mxCell>
                <mxCell id="6" style="edgeStyle=none;html=1;entryX=1;entryY=0.5;entryDx=0;entryDy=0;" edge="1" parent="1" source="3" target="RKgv_uAVDBzMmzX2CUga-28">
                    <mxGeometry relative="1" as="geometry">
                        <mxPoint x="720" y="230" as="targetPoint"/>
                        <Array as="points">
                            <mxPoint x="683" y="230"/>
                        </Array>
                    </mxGeometry>
                </mxCell>
                <mxCell id="7" value="NO" style="edgeLabel;html=1;align=center;verticalAlign=middle;resizable=0;points=[];" vertex="1" connectable="0" parent="6">
                    <mxGeometry x="-0.399" relative="1" as="geometry">
                        <mxPoint x="-191" y="30" as="offset"/>
                    </mxGeometry>
                </mxCell>
                <mxCell id="3" value="n&amp;lt;=0 OR &amp;gt;10" style="rhombus;whiteSpace=wrap;html=1;" vertex="1" parent="1">
                    <mxGeometry x="440" y="200" width="130" height="60" as="geometry"/>
                </mxCell>
                <mxCell id="10" value="" style="edgeStyle=none;html=1;" edge="1" parent="1" source="8" target="RKgv_uAVDBzMmzX2CUga-28">
                    <mxGeometry relative="1" as="geometry"/>
                </mxCell>
                <mxCell id="8" value="i=1" style="rounded=1;whiteSpace=wrap;html=1;" vertex="1" parent="1">
                    <mxGeometry x="240" y="110" width="110" height="60" as="geometry"/>
                </mxCell>
            </root>
        </mxGraphModel>
    </diagram>
</mxfile>